HIERARCHY
ROOT Hips
{
  OFFSET 0 0 0
  CHANNELS 6 Xposition Yposition Zposition Zrotation Yrotation Xrotation
  JOINT LeftThigh
  {
    OFFSET 8.409438 0 -5.917753
    CHANNELS 3 Zrotation Yrotation Xrotation
    JOINT LeftLeg
    {
      OFFSET 0 0 -42.358652
      CHANNELS 3 Zrotation Yrotation Xrotation
      JOINT LeftFoot
      {
        OFFSET 0 0 -39.357303
        CHANNELS 3 Zrotation Yrotation Xrotation
      }
    }
  }
  JOINT RightThigh
  {
    OFFSET -8.409438 0 -5.917753
    CHANNELS 3 Zrotation Yrotation Xrotation
    JOINT RightLeg
    {
      OFFSET 0 0 -42.358652
      CHANNELS 3 Zrotation Yrotation Xrotation
      JOINT RightFoot
      {
        OFFSET 0 0 -39.357303
        CHANNELS 3 Zrotation Yrotation Xrotation
      }
    }
  }
  JOINT SpineLow
  {
    OFFSET 0 0 4.719101
    CHANNELS 3 Zrotation Yrotation Xrotation
    JOINT SpineMid
    {
      OFFSET 0 0 12.899191
      CHANNELS 3 Zrotation Yrotation Xrotation
      JOINT Chest
      {
        OFFSET 0 0 12.899191
        CHANNELS 3 Zrotation Yrotation Xrotation
        JOINT LeftShoulder
        {
          OFFSET 7.550562 1.41573 9.438202
          CHANNELS 3 Zrotation Yrotation Xrotation
          JOINT LeftArm
          {
            OFFSET 9.155056 0 4.247191
            CHANNELS 3 Zrotation Yrotation Xrotation
            JOINT LeftForearm
            {
              OFFSET 0 0 25.771955
              CHANNELS 3 Zrotation Yrotation Xrotation
              JOINT LeftHand
              {
                OFFSET 0 0 25.197169
                CHANNELS 3 Zrotation Yrotation Xrotation
              }
            }
          }
        }
        JOINT RightShoulder
        {
          OFFSET -7.550562 1.41573 9.438202
          CHANNELS 3 Zrotation Yrotation Xrotation
          JOINT RightArm
          {
            OFFSET -9.155056 0 4.247191
            CHANNELS 3 Zrotation Yrotation Xrotation
            JOINT RightForearm
            {
              OFFSET 0 0 -25.771955
              CHANNELS 3 Zrotation Yrotation Xrotation
              JOINT RightHand
              {
                OFFSET 0 0 -25.197169
                CHANNELS 3 Zrotation Yrotation Xrotation
              }
            }
          }
        }
        JOINT Neck
        {
          OFFSET 0 0 15.101124
          CHANNELS 3 Zrotation Yrotation Xrotation
          JOINT Head
          {
            OFFSET 0 0 11.325843
            CHANNELS 3 Zrotation Yrotation Xrotation
            End Site
            {
              OFFSET 0 0 14.157303
            }
          }
        }
      }
    }
  }
}
MOTION
Frames: 8
Frame Time: 0.0
0.0  93.25843  0.0  -3.865606  -2.717428  -84.359476  7.470405  -15.718356  -5.571201  0.118599  -2.386775  9.865956  6.919585  1.635434  2.905493  -25.266656  -0.547471  -12.308233  -1.392117  6.296247  9.004746  6.009599  2.799024  0.400268  7.071936  0.155731  -1.754038  19.308528  0.930906  -4.70251  19.308528  0.930906  -4.70251  5.110966  21.39997  7.189947  170.660572  17.255311  -178.874843  -32.449995  33.719484  97.620731  54.160971  -3.400872  3.222738  -1.575659  5.596847  4.00361  -137.286673  46.754088  -173.625219  -52.624559  50.382777  -89.094157  92.844967  -17.866998  32.720822  -23.361296  4.60586  12.614091  -17.615558  2.978635  9.648692  
0.0  93.25843  0.0  -3.788561  -3.186651  -84.771193  8.132958  -15.747566  -5.372145  -0.165976  -2.246051  10.588062  6.894203  1.698835  2.8651  -24.930375  -0.196519  -11.811239  -1.758729  6.069899  8.704784  6.039345  2.72599  0.442266  7.0067  0.117097  -1.674754  19.134229  0.79901  -4.500201  19.134228  0.79901  -4.500202  5.879645  21.517283  6.749107  171.183023  16.040636  -179.366435  -32.962772  35.109408  97.926213  54.764307  -4.021313  3.662689  -2.035814  6.295192  3.258833  -138.892821  46.526978  -175.006863  -53.11357  49.967062  -88.541227  93.537577  -17.917643  31.828367  -22.926477  4.818531  12.547472  -17.292365  3.149829  9.602312  
0.0  93.25843  0.0  -3.696401  -2.896926  -85.184276  8.228721  -16.025984  -5.320067  -0.703618  -1.88525  11.196508  6.89416  1.802296  2.91785  -24.957247  0.019524  -11.2993  -2.223345  6.011061  8.493122  6.002297  2.740926  0.489737  6.770458  -0.023374  -1.663096  18.498077  0.399576  -4.511621  18.498079  0.399576  -4.511621  7.240892  22.19594  6.785548  171.494883  15.906345  -179.599237  -32.26978  34.342679  98.645851  54.97192  -3.61886  3.665782  -1.707807  7.261371  3.533883  -140.15889  46.336584  -175.900765  -53.399822  50.047805  -87.823734  93.980765  -17.673462  31.12424  -22.279168  5.447171  12.694784  -16.81867  3.630091  9.728419  
0.0  93.25843  0.0  -3.40999  -3.925167  -85.546538  10.995745  -15.900528  -4.733484  -2.338741  -1.563526  10.902204  6.96576  1.928722  3.077245  -23.657637  0.388531  -10.985374  -2.733092  6.047396  8.343282  5.967992  2.731979  0.560135  6.74989  -0.108216  -1.668178  18.447529  0.169875  -4.549129  18.447529  0.169875  -4.549129  8.093595  22.587835  6.817537  171.59194  16.21022  -179.552576  -31.218359  32.826547  99.191654  54.548706  -2.960308  3.810392  -1.002906  7.895973  4.40592  -143.80135  45.312154  -176.150166  -55.65702  48.309439  -87.795063  94.140153  -17.503631  30.841039  -21.642871  6.023491  13.005005  -16.354369  4.065322  9.973646  
0.0  93.25843  0.0  -3.379926  -4.737071  -85.785651  12.418119  -16.100493  -4.70783  -2.800212  -1.280488  11.251143  6.867052  2.003014  3.0988  -22.644347  0.427167  -10.659923  -3.019966  6.145855  8.292612  5.867173  2.779314  0.58065  6.73266  -0.154899  -1.686128  18.403549  0.047264  -4.610806  18.40355  0.047264  -4.610806  8.160661  22.62269  6.305749  171.157277  16.487065  -179.618555  -30.701797  31.155931  99.424339  53.29066  -2.205333  3.709092  -0.023828  7.932981  5.255374  -143.95448  45.295643  -175.51375  -54.794467  48.945955  -87.51896  94.002544  -17.412795  30.968353  -21.12906  6.318541  13.296404  -15.977442  4.287786  10.195893  
0.0  93.25843  0.0  -3.388726  -5.234755  -86.087065  13.343243  -16.343021  -4.43655  -1.539151  -0.996756  12.62359  5.269209  1.79047  1.859445  -22.238652  0.411641  -10.330586  -3.20831  6.220963  8.33088  5.919754  2.948027  0.584152  6.692092  -0.143196  -1.628914  18.292251  0.060381  -4.452805  18.292251  0.060381  -4.452805  7.597528  22.34879  5.339934  170.277823  16.476597  -179.540201  -30.555069  29.912649  99.284468  52.279607  -1.27852  2.798964  0.676975  7.474714  5.561195  -143.442048  45.252981  -174.699678  -53.509358  49.623437  -87.424156  93.915473  -17.429772  31.026544  -20.718065  6.391344  13.366247  -15.671402  4.348896  10.245717  
0.0  93.25843  0.0  -3.418516  -6.100568  -86.358895  14.106081  -16.533994  -4.124166  -1.420512  -0.887639  12.773998  5.220878  1.828954  1.833526  -21.520493  0.408742  -10.027134  -3.263004  6.33495  8.441807  5.917808  3.048212  0.566234  6.726095  -0.146617  -1.571306  18.385696  0.037473  -4.297483  18.385696  0.037473  -4.297483  6.752169  22.179019  4.579286  169.382804  16.419712  -179.444943  -30.973964  29.322378  99.018906  51.435363  -0.147801  1.089  0.827418  7.174213  5.637185  -142.495806  45.323592  -174.089256  -52.398293  50.087345  -87.568922  94.160458  -17.480929  30.998963  -20.341052  6.380035  13.375915  -15.388699  4.348134  10.248151  
0.0  93.25843  0.0  -3.101172  -6.263159  -86.361789  14.255216  -16.31488  -3.85116  -1.401801  -0.80354  12.66135  5.31076  1.861328  1.857458  -21.701231  0.615357  -10.146385  -3.345281  6.496449  8.497244  6.102317  3.095237  0.577282  6.574668  -0.139787  -1.548731  17.971664  0.040032  -4.235239  17.971663  0.040032  -4.235239  6.350746  22.303549  4.176449  168.84448  16.368183  -179.448775  -31.753903  29.121408  98.502024  50.594331  0.152435  0.13112  2.255461  6.798499  5.813305  -143.095491  45.08417  -174.323934  -54.058755  48.456641  -88.534026  96.739382  -16.425223  29.602377  -19.71606  6.516442  13.341739  -14.922129  4.465113  10.219132  
